<svg id="Layer_1" data-name="Layer 1" xmlns="http://www.w3.org/2000/svg" viewBox="0 0 1080 1080"><defs><style>.cls-1{fill:#536124;}.cls-2{fill:#663310;}</style></defs><path class="cls-1" d="M477.08,499.3a28.85,28.85,0,0,0-7.89-5.73,30.2,30.2,0,0,0-9.13-2.58,93.78,93.78,0,0,0-11.76-.65q-9.39,0-15.08,2.76t-6.72,6.81q-1,4.05,3.32,8.18t14.86,7.24a117.33,117.33,0,0,1,16.67,5.43,41.09,41.09,0,0,1,13.1,8.22,16.86,16.86,0,0,1,5.3,12.11,17.65,17.65,0,0,1-6.08,13.4,34.48,34.48,0,0,1-14.95,7.19,72.34,72.34,0,0,1-19.21,1.81A92.87,92.87,0,0,1,410.39,558v-9.82a28.08,28.08,0,0,0,8.53,5.9A40.59,40.59,0,0,0,429,557a71.68,71.68,0,0,0,11.25.86,31.49,31.49,0,0,0,13.91-2.76q5.64-2.76,7-6.85t-2.93-8.35q-4.26-4.27-15.64-7.54a118.36,118.36,0,0,1-16.62-5.6,41.16,41.16,0,0,1-13-8.36,17,17,0,0,1-5.26-12.15,17.24,17.24,0,0,1,6-13.39,34.77,34.77,0,0,1,15-7.2A70.42,70.42,0,0,1,448,484a89.9,89.9,0,0,1,29.12,5.51Z"/><path class="cls-1" d="M519.45,556.94q5.5,5.26,19.64,6.38H520q-10.08,0-15.12-3.36a16.76,16.76,0,0,1-6.76-7.93,23.17,23.17,0,0,1-1.64-8.62V487.16H484.3v-4.31h12.14v-9.57q14.65-.67,17.84-13.09v22.66h20.85v4.31H514.28l-.09,59.27Q513.93,551.68,519.45,556.94Z"/><path class="cls-1" d="M611.66,561.42a11,11,0,0,0,5.52,2.07h-25.5V508.87a24.07,24.07,0,0,1-5,3.62,115.24,115.24,0,0,1-10.77,5q-9,3.62-13.48,9.26T558,541.35a21.16,21.16,0,0,0,4.87,14.13q4.86,5.78,14,6.89a44.72,44.72,0,0,1-8.32,1.08,46.44,46.44,0,0,1-8.48-.31,24.82,24.82,0,0,1-14.39-7.23A19.16,19.16,0,0,1,540,542.12,17.81,17.81,0,0,1,544.2,530a36.14,36.14,0,0,1,10.9-8.22,113.71,113.71,0,0,1,14.35-6.08,84.79,84.79,0,0,0,14.08-6q6.26-3.39,6.77-8.83-.18-8.61-6.21-11.45a23.85,23.85,0,0,0-12.83-2.16q-10.43.78-16.85,6.64T544,511V492.5a63.16,63.16,0,0,1,30.33-9.57q14.13-.51,24.42,5.95t10.82,20.68V556C609.6,558.52,610.28,560.33,611.66,561.42Z"/><path class="cls-1" d="M681.33,501.28q-6.81-10.5-14.86-11.76t-14.09,4.92q-6,6.15-6,17.44v51.44H619a13.31,13.31,0,0,0,6.9-3q2.58-2.28,2.58-7.62v-59.1c0-3.51-.86-6-2.58-7.58a12.59,12.59,0,0,0-6.9-2.93h27.4v13q5.77-9.92,15.21-12.54t19.77,1.34Z"/><path class="cls-1" d="M758.35,561.42a11,11,0,0,0,5.52,2.07H738.36V508.87a23.71,23.71,0,0,1-5,3.62,115.24,115.24,0,0,1-10.77,5q-9,3.62-13.49,9.26t-4.43,14.61a21.16,21.16,0,0,0,4.87,14.13q4.86,5.78,14,6.89a44.72,44.72,0,0,1-8.32,1.08,46.4,46.4,0,0,1-8.48-.31,24.82,24.82,0,0,1-14.39-7.23,19.16,19.16,0,0,1-5.69-13.79A17.81,17.81,0,0,1,690.89,530a36.14,36.14,0,0,1,10.9-8.22,113.71,113.71,0,0,1,14.35-6.08,84.79,84.79,0,0,0,14.08-6q6.25-3.39,6.77-8.83-.18-8.61-6.21-11.45A23.85,23.85,0,0,0,718,487.24q-10.43.78-16.85,6.64T690.72,511V492.5a63.16,63.16,0,0,1,30.33-9.57q14.13-.51,24.42,5.95t10.81,20.68V556Q756.28,559.79,758.35,561.42Z"/><path class="cls-1" d="M365.61,508.94a18.76,18.76,0,0,1-2,1.67"/><path class="cls-1" d="M389,534.46l-1,2.12A45.29,45.29,0,0,1,385.5,541,44.73,44.73,0,0,1,370,556.3a49.12,49.12,0,0,1-4.84,2.51c-.51.24-1,.47-1.55.68a51.65,51.65,0,0,1-16.12,3.86,54.71,54.71,0,0,1-18.2-1.88l-5.37-1.21c.71.06,1.42.1,2.13.1a26.42,26.42,0,0,0,17.4-6.7,37.6,37.6,0,0,0,4-3.9,25.84,25.84,0,0,0,6.33-12q1.81-8.76-2-20.3A140.65,140.65,0,0,1,348,503.12c-.21-1.12-.37-2.18-.47-3.18a23.6,23.6,0,0,1-.09-4.48h0l-2.49,2.1-.11.08a40,40,0,0,1-3.55,2.26,140.89,140.89,0,0,1-13.43,6.22q-11.28,4.53-16.81,11.56a26,26,0,0,0-5.16,12.74,38.23,38.23,0,0,0-.37,5.47,27.14,27.14,0,0,0,3.92,14.68,51.22,51.22,0,0,1-16-25.59,47.52,47.52,0,0,1-1.37-7,42.29,42.29,0,0,1-.34-4.89,46.08,46.08,0,0,1,5-21.41l1-2.12a45.85,45.85,0,0,1,17-19c.89-.55,1.77-1.08,2.68-1.57a50.87,50.87,0,0,1,16.9-5.73c1.57-.25,3.18-.42,4.8-.52A52.44,52.44,0,0,1,385,485.3a51.34,51.34,0,0,1,8.68,24.09A45.7,45.7,0,0,1,389,534.46Z"/><path class="cls-2" d="M559.44,588.28v8.78h12.63v3.1H559.44v10.18h-3.61v-25.2h17.79v3.14Z"/><path class="cls-2" d="M614.12,604h-13.4l-2.77,6.3h-3.71l11.42-25.2h3.56l11.45,25.2h-3.78Zm-1.26-2.88-5.44-12.34L602,601.16Z"/><path class="cls-2" d="M662.42,610.34,657,602.6c-.67,0-1.2.08-1.58.08h-6.23v7.66h-3.6v-25.2h9.83a11.67,11.67,0,0,1,7.7,2.34,7.92,7.92,0,0,1,2.81,6.45,8.45,8.45,0,0,1-1.44,5,8.16,8.16,0,0,1-4.1,3l6,8.46Zm-1.91-12.2a5.81,5.81,0,0,0,0-8.41,8.14,8.14,0,0,0-5.22-1.45h-6.12v11.34h6.12A8.08,8.08,0,0,0,660.51,598.14Z"/><path class="cls-2" d="M716.08,610.34,716,592l-9.11,15.3h-1.65l-9.11-15.19v18.25h-3.46v-25.2h3l10.51,17.72,10.37-17.72h3l0,25.2Z"/><path class="cls-2" d="M750,609.75a11.26,11.26,0,0,1-4.15-2.29l1.33-2.8a11.09,11.09,0,0,0,3.69,2.1,13.54,13.54,0,0,0,4.62.81,8.31,8.31,0,0,0,4.68-1.06,3.26,3.26,0,0,0,1.55-2.83,2.79,2.79,0,0,0-.84-2.1,5.59,5.59,0,0,0-2.09-1.24c-.83-.29-2-.62-3.51-1a35.93,35.93,0,0,1-4.59-1.36,7.6,7.6,0,0,1-3-2.11,5.62,5.62,0,0,1-1.24-3.83,6.47,6.47,0,0,1,1.06-3.64,7.31,7.31,0,0,1,3.22-2.59,13.06,13.06,0,0,1,5.37-1,17.17,17.17,0,0,1,4.39.57,11.92,11.92,0,0,1,3.71,1.66L763,590a13.27,13.27,0,0,0-3.39-1.53,12.51,12.51,0,0,0-3.52-.52,7.81,7.81,0,0,0-4.59,1.11,3.43,3.43,0,0,0-1.53,2.88,2.77,2.77,0,0,0,.86,2.11,6,6,0,0,0,2.14,1.26,31.8,31.8,0,0,0,3.48,1A35.3,35.3,0,0,1,761,597.6a7.73,7.73,0,0,1,3,2.09,5.47,5.47,0,0,1,1.24,3.78,6.46,6.46,0,0,1-1.08,3.62,7.27,7.27,0,0,1-3.27,2.59,13.72,13.72,0,0,1-5.41,1A17.24,17.24,0,0,1,750,609.75Z"/></svg>